<svg width="24" height="24" viewBox="0 0 24 24" fill="none" xmlns="http://www.w3.org/2000/svg">
<path d="M9.00012 11.75C8.6686 11.75 8.35066 11.8817 8.11624 12.1161C7.88182 12.3505 7.75012 12.6685 7.75012 13C7.75012 13.3315 7.88182 13.6495 8.11624 13.8839C8.35066 14.1183 8.6686 14.25 9.00012 14.25C9.33164 14.25 9.64959 14.1183 9.88401 13.8839C10.1184 13.6495 10.2501 13.3315 10.2501 13C10.2501 12.6685 10.1184 12.3505 9.88401 12.1161C9.64959 11.8817 9.33164 11.75 9.00012 11.75ZM15.0001 11.75C14.6686 11.75 14.3507 11.8817 14.1162 12.1161C13.8818 12.3505 13.7501 12.6685 13.7501 13C13.7501 13.3315 13.8818 13.6495 14.1162 13.8839C14.3507 14.1183 14.6686 14.25 15.0001 14.25C15.3316 14.25 15.6496 14.1183 15.884 13.8839C16.1184 13.6495 16.2501 13.3315 16.2501 13C16.2501 12.6685 16.1184 12.3505 15.884 12.1161C15.6496 11.8817 15.3316 11.75 15.0001 11.75ZM12.0001 2C6.48012 2 2.00012 6.48 2.00012 12C2.00012 17.52 6.48012 22 12.0001 22C17.5201 22 22.0001 17.52 22.0001 12C22.0001 6.48 17.5201 2 12.0001 2ZM12.0001 20C7.59012 20 4.00012 16.41 4.00012 12C4.00012 11.71 4.02012 11.42 4.05012 11.14C6.41012 10.09 8.28012 8.16 9.26012 5.77C10.4034 7.39238 12.0047 8.63679 13.8591 9.34401C15.7136 10.0512 17.7369 10.1891 19.6701 9.74C19.8801 10.45 20.0001 11.21 20.0001 12C20.0001 16.41 16.4101 20 12.0001 20Z" fill="white"/>
</svg>
