<svg width="20" height="20" viewBox="0 0 20 20" fill="none" xmlns="http://www.w3.org/2000/svg">
<path d="M10.0001 15.4167C10.3071 15.4167 10.5645 15.3127 10.7725 15.1047C10.9805 14.8967 11.0842 14.6396 11.0835 14.3333C11.0835 14.0264 10.9795 13.7689 10.7715 13.5609C10.5635 13.3529 10.3063 13.2493 10.0001 13.25C9.69318 13.25 9.43571 13.354 9.22771 13.562C9.01971 13.77 8.91607 14.0271 8.91679 14.3333C8.91679 14.6403 9.02079 14.8977 9.22879 15.1058C9.43679 15.3138 9.6939 15.4174 10.0001 15.4167ZM8.91679 11.0833H11.0835V4.58333H8.91679V11.0833ZM5.93762 19.75L0.250122 14.0625V5.9375L5.93762 0.25H14.0626L19.7501 5.9375V14.0625L14.0626 19.75H5.93762ZM6.85846 17.5833H13.1418L17.5835 13.1417V6.85833L13.1418 2.41667H6.85846L2.41679 6.85833V13.1417L6.85846 17.5833Z" fill="white"/>
</svg>
