<svg width="16" height="16" viewBox="0 0 16 16" fill="none" xmlns="http://www.w3.org/2000/svg">
<path d="M7.93789 10.0843C8.28234 10.0843 8.56157 9.8051 8.56157 9.46065C8.56157 9.11621 8.28234 8.83698 7.93789 8.83698C7.59344 8.83698 7.31421 9.11621 7.31421 9.46065C7.31421 9.8051 7.59344 10.0843 7.93789 10.0843Z" fill="#231F20"/>
<path d="M11.056 5.09492H10.4323V3.91617C10.4323 3.25453 10.1694 2.61998 9.70159 2.15213C9.23374 1.68428 8.5992 1.42145 7.93756 1.42145C7.27592 1.42145 6.64137 1.68428 6.17352 2.15213C5.70567 2.61998 5.44284 3.25453 5.44284 3.91617V5.09492H4.81916C4.32293 5.09492 3.84702 5.29205 3.49613 5.64293C3.14525 5.99382 2.94812 6.46973 2.94812 6.96596V11.9554C2.94812 12.4516 3.14525 12.9275 3.49613 13.2784C3.84702 13.6293 4.32293 13.8264 4.81916 13.8264H11.056C11.5522 13.8264 12.0281 13.6293 12.379 13.2784C12.7299 12.9275 12.927 12.4516 12.927 11.9554V6.96596C12.927 6.46973 12.7299 5.99382 12.379 5.64293C12.0281 5.29205 11.5522 5.09492 11.056 5.09492ZM6.6902 3.91617C6.68181 3.57645 6.80835 3.24724 7.04213 3.0006C7.27591 2.75397 7.59787 2.61 7.93756 2.6002C8.27724 2.61 8.59921 2.75397 8.83298 3.0006C9.06676 3.24724 9.19331 3.57645 9.18492 3.91617V5.09492H6.6902V3.91617ZM7.93756 11.3317C7.5675 11.3317 7.20575 11.222 6.89806 11.0164C6.59037 10.8108 6.35056 10.5186 6.20894 10.1767C6.06733 9.83481 6.03027 9.4586 6.10247 9.09566C6.17466 8.73271 6.35286 8.39932 6.61453 8.13765C6.8762 7.87598 7.20959 7.69778 7.57254 7.62559C7.93548 7.5534 8.31168 7.59045 8.65357 7.73206C8.99546 7.87368 9.28768 8.11349 9.49327 8.42118C9.69886 8.72888 9.8086 9.09062 9.8086 9.46068C9.8086 9.95691 9.61147 10.4328 9.26058 10.7837C8.90969 11.1346 8.43379 11.3317 7.93756 11.3317Z" fill="#231F20"/>
</svg>
