<svg width="16" height="15" viewBox="0 0 16 15" fill="none" xmlns="http://www.w3.org/2000/svg">
<path d="M7.80381 6.87819C8.28836 6.87819 8.76203 6.73451 9.16492 6.4653C9.56781 6.1961 9.88182 5.81348 10.0672 5.36581C10.2527 4.91814 10.3012 4.42554 10.2067 3.9503C10.1121 3.47507 9.8788 3.03853 9.53617 2.6959C9.19354 2.35327 8.75701 2.11994 8.28177 2.02541C7.80653 1.93088 7.31393 1.97939 6.86626 2.16482C6.4186 2.35025 6.03597 2.66427 5.76677 3.06715C5.49757 3.47004 5.35388 3.94371 5.35388 4.42826C5.35388 5.07802 5.612 5.70117 6.07145 6.16062C6.5309 6.62007 7.15405 6.87819 7.80381 6.87819Z" fill="#231F20"/>
<path d="M11.4789 13.0029C11.6413 13.0029 11.7971 12.9384 11.912 12.8236C12.0268 12.7087 12.0914 12.5529 12.0914 12.3905C12.0914 11.2534 11.6396 10.1629 10.8356 9.35883C10.0316 8.55479 8.94106 8.10309 7.80398 8.10309C6.66689 8.10309 5.57638 8.55479 4.77234 9.35883C3.96831 10.1629 3.5166 11.2534 3.5166 12.3905C3.5166 12.5529 3.58113 12.7087 3.69599 12.8236C3.81086 12.9384 3.96664 13.0029 4.12908 13.0029H11.4789Z" fill="#231F20"/>
</svg>
