<svg width="24" height="24" viewBox="0 0 24 24" fill="none" xmlns="http://www.w3.org/2000/svg">
<path d="M14.0601 9.94L12.0001 9L14.0601 8.06L15.0001 6L15.9401 8.06L18.0001 9L15.9401 9.94L15.0001 12L14.0601 9.94ZM4.00012 14L4.94012 11.94L7.00012 11L4.94012 10.06L4.00012 8L3.06012 10.06L1.00012 11L3.06012 11.94L4.00012 14ZM8.50012 9L9.59012 6.59L12.0001 5.5L9.59012 4.41L8.50012 2L7.41012 4.41L5.00012 5.5L7.41012 6.59L8.50012 9ZM4.50012 20.5L10.5001 14.49L14.5001 18.49L23.0001 8.93L21.5901 7.52L14.5001 15.49L10.5001 11.49L3.00012 19L4.50012 20.5Z" fill="#F8F8F8"/>
</svg>
