<svg width="22" height="20" viewBox="0 0 22 20" fill="none" xmlns="http://www.w3.org/2000/svg">
<path d="M20.0001 3.18L8.59012 14.6L4.35012 10.36L5.76012 8.95L8.59012 11.78L18.5901 1.78L20.0001 3.18ZM10.0001 18C5.59012 18 2.00012 14.41 2.00012 10C2.00012 5.59 5.59012 2 10.0001 2C11.5701 2 13.0401 2.46 14.2801 3.25L15.7301 1.8C14.0491 0.628213 12.0492 -1.60602e-05 10.0001 3.07927e-10C4.48012 3.07927e-10 0.00012207 4.48 0.00012207 10C0.00012207 15.52 4.48012 20 10.0001 20C11.7301 20 13.3601 19.56 14.7801 18.78L13.2801 17.28C12.2801 17.74 11.1701 18 10.0001 18ZM17.0001 13H14.0001V15H17.0001V18H19.0001V15H22.0001V13H19.0001V10H17.0001V13Z" fill="white"/>
</svg>
