<svg width="19" height="20" viewBox="0 0 19 20" fill="none" xmlns="http://www.w3.org/2000/svg">
<path d="M16.4785 10.54C16.5185 10.24 16.5385 9.93 16.5385 9.6C16.5385 9.28 16.5185 8.96 16.4685 8.66L18.4985 7.08C18.5859 7.0079 18.6457 6.9077 18.6676 6.79647C18.6895 6.68524 18.6721 6.56987 18.6185 6.47L16.6985 3.15C16.6419 3.04957 16.5517 2.97238 16.4437 2.93211C16.3357 2.89184 16.217 2.8911 16.1085 2.93L13.7185 3.89C13.2185 3.51 12.6885 3.19 12.0985 2.95L11.7385 0.410003C11.7208 0.295533 11.6626 0.19121 11.5745 0.115979C11.4864 0.0407481 11.3743 -0.000401505 11.2585 2.9534e-06H7.41847C7.17847 2.9534e-06 6.98846 0.170003 6.94846 0.410003L6.58847 2.95C5.99847 3.19 5.45847 3.52 4.96847 3.89L2.57846 2.93C2.35846 2.85 2.10847 2.93 1.98847 3.15L0.0784651 6.47C-0.0415349 6.68 -0.001535 6.94 0.198465 7.08L2.22847 8.66C2.17847 8.96 2.13847 9.29 2.13847 9.6C2.13847 9.91 2.15847 10.24 2.20847 10.54L0.178465 12.12C0.090989 12.1921 0.0312187 12.2923 0.00933756 12.4035C-0.0125436 12.5148 0.00481835 12.6301 0.0584651 12.73L1.97846 16.05C2.09846 16.27 2.34847 16.34 2.56847 16.27L4.95847 15.31C5.45847 15.69 5.98846 16.01 6.57846 16.25L6.93847 18.79C6.98847 19.03 7.17847 19.2 7.41847 19.2H11.2585C11.4985 19.2 11.6985 19.03 11.7285 18.79L12.0885 16.25C12.6785 16.01 13.2185 15.69 13.7085 15.31L16.0985 16.27C16.3185 16.35 16.5685 16.27 16.6885 16.05L18.6085 12.73C18.7285 12.51 18.6785 12.26 18.4885 12.12L16.4785 10.54ZM9.33846 13.2C7.35846 13.2 5.73846 11.58 5.73846 9.6C5.73846 7.62 7.35846 6 9.33846 6C11.3185 6 12.9385 7.62 12.9385 9.6C12.9385 11.58 11.3185 13.2 9.33846 13.2Z" fill="#F8F8F8"/>
</svg>
