<svg width="22" height="18" viewBox="0 0 22 18" fill="none" xmlns="http://www.w3.org/2000/svg">
<path d="M6.92389 10.7029C8.71881 10.7029 10.1739 9.20239 10.1739 7.35144C10.1739 5.50049 8.71881 4 6.92389 4C5.12896 4 3.67389 5.50049 3.67389 7.35144C3.67389 9.20239 5.12896 10.7029 6.92389 10.7029Z" stroke="white" stroke-width="2" stroke-miterlimit="10" stroke-linecap="round" stroke-linejoin="round"/>
<path d="M1.00012 16.8118C1.00012 13.4366 3.65083 10.7031 6.92388 10.7031C10.1969 10.7031 12.8476 13.4366 12.8476 16.8118" stroke="white" stroke-width="2" stroke-miterlimit="10" stroke-linecap="round" stroke-linejoin="round"/>
<path d="M16.9219 5.61012C18.1565 5.61012 19.1572 4.57811 19.1572 3.30506C19.1572 2.03201 18.1565 1 16.9219 1C15.6874 1 14.6866 2.03201 14.6866 3.30506C14.6866 4.57811 15.6874 5.61012 16.9219 5.61012Z" stroke="white" stroke-width="2" stroke-miterlimit="10" stroke-linecap="round" stroke-linejoin="round"/>
<path d="M12.8477 9.81177C12.8477 7.49037 14.6708 5.61035 16.9219 5.61035C19.1731 5.61035 20.9962 7.49037 20.9962 9.81177" stroke="white" stroke-width="2" stroke-miterlimit="10" stroke-linecap="round" stroke-linejoin="round"/>
</svg>
